<?xml version="1.0" encoding="UTF-8" standalone="no"?>
<!-- Created with Inkscape (http://www.inkscape.org/) -->

<svg
   xmlns:dc="http://purl.org/dc/elements/1.1/"
   xmlns:cc="http://creativecommons.org/ns#"
   xmlns:rdf="http://www.w3.org/1999/02/22-rdf-syntax-ns#"
   xmlns:svg="http://www.w3.org/2000/svg"
   xmlns="http://www.w3.org/2000/svg"
   xmlns:sodipodi="http://sodipodi.sourceforge.net/DTD/sodipodi-0.dtd"
   xmlns:inkscape="http://www.inkscape.org/namespaces/inkscape"
   width="3440"
   height="3440"
   viewBox="0 0 3224.9998 3224.9998"
   id="svg2"
   version="1.1"
   inkscape:version="0.92.2 5c3e80d, 2017-08-06"
   sodipodi:docname="Lotus2.svg"
   inkscape:export-filename="/home/bhajneet/Documents/Shabad OS Logo/Logo-17-11-15-4.png"
   inkscape:export-xdpi="11.25"
   inkscape:export-ydpi="11.25">
  <defs
     id="defs4">
    <linearGradient
       id="linearGradient4158"
       spreadMethod="pad"
       gradientTransform="matrix(-5.39e-5,-1234.2161,-1234.2161,5.39e-5,329.98291,1025.6177)"
       gradientUnits="userSpaceOnUse"
       y2="0"
       x2="1"
       y1="0"
       x1="0">
      <stop
         id="stop4160"
         offset="0"
         style="stop-opacity:1;stop-color:#ffffff" />
      <stop
         id="stop4162"
         offset="0.05086908"
         style="stop-opacity:1;stop-color:#ffffff" />
      <stop
         id="stop4164"
         offset="0.460674"
         style="stop-opacity:1;stop-color:#bce832" />
      <stop
         id="stop4166"
         offset="1"
         style="stop-opacity:1;stop-color:#ffb400" />
    </linearGradient>
    <clipPath
       id="clipPath4174"
       clipPathUnits="userSpaceOnUse">
      <path
         inkscape:connector-curvature="0"
         id="path4176"
         d="M 0,494.74 H 659.967 V 0 H 0 Z" />
    </clipPath>
    <linearGradient
       id="linearGradient4322"
       spreadMethod="pad"
       gradientTransform="matrix(-210.5498,0,0,-210.5498,425.7207,237.00977)"
       gradientUnits="userSpaceOnUse"
       y2="0"
       x2="1"
       y1="0"
       x1="0">
      <stop
         id="stop4324"
         offset="0"
         style="stop-opacity:1;stop-color:#f276a0" />
      <stop
         id="stop4326"
         offset="1"
         style="stop-opacity:1;stop-color:#f59cb0" />
    </linearGradient>
    <linearGradient
       id="linearGradient4342"
       spreadMethod="pad"
       gradientTransform="matrix(-66.299805,0,0,-66.299805,367.32422,221.96484)"
       gradientUnits="userSpaceOnUse"
       y2="0"
       x2="1"
       y1="0"
       x1="0">
      <stop
         id="stop4344"
         offset="0"
         style="stop-opacity:1;stop-color:#db5c87" />
      <stop
         id="stop4346"
         offset="1"
         style="stop-opacity:1;stop-color:#e3038c" />
    </linearGradient>
    <linearGradient
       id="linearGradient4362"
       spreadMethod="pad"
       gradientTransform="matrix(-21.210937,0,0,-21.210937,304.79199,259.66113)"
       gradientUnits="userSpaceOnUse"
       y2="0"
       x2="1"
       y1="0"
       x1="0">
      <stop
         id="stop4364"
         offset="0"
         style="stop-opacity:1;stop-color:#db5c87" />
      <stop
         id="stop4366"
         offset="1"
         style="stop-opacity:1;stop-color:#e3038c" />
    </linearGradient>
    <linearGradient
       id="linearGradient4382"
       spreadMethod="pad"
       gradientTransform="matrix(-66.504883,0,0,-66.504883,369.48828,252.92822)"
       gradientUnits="userSpaceOnUse"
       y2="0"
       x2="1"
       y1="0"
       x1="0">
      <stop
         id="stop4384"
         offset="0"
         style="stop-opacity:1;stop-color:#db5c87" />
      <stop
         id="stop4386"
         offset="1"
         style="stop-opacity:1;stop-color:#e3038c" />
    </linearGradient>
    <linearGradient
       id="linearGradient4402"
       spreadMethod="pad"
       gradientTransform="matrix(-33.65332,0,0,-33.65332,334.80664,276.69434)"
       gradientUnits="userSpaceOnUse"
       y2="0"
       x2="1"
       y1="0"
       x1="0">
      <stop
         id="stop4404"
         offset="0"
         style="stop-opacity:1;stop-color:#db5c87" />
      <stop
         id="stop4406"
         offset="1"
         style="stop-opacity:1;stop-color:#e3038c" />
    </linearGradient>
    <linearGradient
       id="linearGradient4422"
       spreadMethod="pad"
       gradientTransform="matrix(-27.705078,0,0,-27.705078,367.25977,285.78809)"
       gradientUnits="userSpaceOnUse"
       y2="0"
       x2="1"
       y1="0"
       x1="0">
      <stop
         id="stop4424"
         offset="0"
         style="stop-opacity:1;stop-color:#db5c87" />
      <stop
         id="stop4426"
         offset="1"
         style="stop-opacity:1;stop-color:#e3038c" />
    </linearGradient>
    <linearGradient
       id="linearGradient4442"
       spreadMethod="pad"
       gradientTransform="matrix(-19.035156,0,0,-19.035156,295.00879,227.18359)"
       gradientUnits="userSpaceOnUse"
       y2="0"
       x2="1"
       y1="0"
       x1="0">
      <stop
         id="stop4444"
         offset="0"
         style="stop-opacity:1;stop-color:#db5c87" />
      <stop
         id="stop4446"
         offset="1"
         style="stop-opacity:1;stop-color:#e3038c" />
    </linearGradient>
    <linearGradient
       id="linearGradient4462"
       spreadMethod="pad"
       gradientTransform="matrix(-36.941406,0,0,-36.941406,328.67676,209.63477)"
       gradientUnits="userSpaceOnUse"
       y2="0"
       x2="1"
       y1="0"
       x1="0">
      <stop
         id="stop4464"
         offset="0"
         style="stop-opacity:1;stop-color:#db5c87" />
      <stop
         id="stop4466"
         offset="1"
         style="stop-opacity:1;stop-color:#e3038c" />
    </linearGradient>
    <linearGradient
       id="linearGradient4482"
       spreadMethod="pad"
       gradientTransform="matrix(-49.480915,11.900052,-11.900052,-49.480915,392.85547,221.9375)"
       gradientUnits="userSpaceOnUse"
       y2="0"
       x2="1"
       y1="0"
       x1="0">
      <stop
         id="stop4484"
         offset="0"
         style="stop-opacity:1;stop-color:#db5c87" />
      <stop
         id="stop4486"
         offset="1"
         style="stop-opacity:1;stop-color:#e3038c" />
    </linearGradient>
    <linearGradient
       id="linearGradient4502"
       spreadMethod="pad"
       gradientTransform="matrix(-46.654785,0,0,-46.654785,389.76758,291.4126)"
       gradientUnits="userSpaceOnUse"
       y2="0"
       x2="1"
       y1="0"
       x1="0">
      <stop
         id="stop4504"
         offset="0"
         style="stop-opacity:1;stop-color:#db5c87" />
      <stop
         id="stop4506"
         offset="1"
         style="stop-opacity:1;stop-color:#e3038c" />
    </linearGradient>
    <linearGradient
       id="linearGradient4522"
       spreadMethod="pad"
       gradientTransform="matrix(-52.671875,0,0,-52.671875,332.2959,308.58594)"
       gradientUnits="userSpaceOnUse"
       y2="0"
       x2="1"
       y1="0"
       x1="0">
      <stop
         id="stop4524"
         offset="0"
         style="stop-opacity:1;stop-color:#db5c87" />
      <stop
         id="stop4526"
         offset="1"
         style="stop-opacity:1;stop-color:#e3038c" />
    </linearGradient>
    <linearGradient
       id="linearGradient4542"
       spreadMethod="pad"
       gradientTransform="matrix(-59.75,0,0,-59.75,376.05762,166.08789)"
       gradientUnits="userSpaceOnUse"
       y2="0"
       x2="1"
       y1="0"
       x1="0">
      <stop
         id="stop4544"
         offset="0"
         style="stop-opacity:1;stop-color:#db5c87" />
      <stop
         id="stop4546"
         offset="1"
         style="stop-opacity:1;stop-color:#e3038c" />
    </linearGradient>
    <linearGradient
       id="linearGradient4562"
       spreadMethod="pad"
       gradientTransform="matrix(-44.260742,0,0,-44.260742,310.62988,183.01953)"
       gradientUnits="userSpaceOnUse"
       y2="0"
       x2="1"
       y1="0"
       x1="0">
      <stop
         id="stop4564"
         offset="0"
         style="stop-opacity:1;stop-color:#db5c87" />
      <stop
         id="stop4566"
         offset="1"
         style="stop-opacity:1;stop-color:#e3038c" />
    </linearGradient>
    <linearGradient
       id="linearGradient4582"
       spreadMethod="pad"
       gradientTransform="matrix(-38.292969,0,0,-38.292969,270.18848,222.81836)"
       gradientUnits="userSpaceOnUse"
       y2="0"
       x2="1"
       y1="0"
       x1="0">
      <stop
         id="stop4584"
         offset="0"
         style="stop-opacity:1;stop-color:#db5c87" />
      <stop
         id="stop4586"
         offset="1"
         style="stop-opacity:1;stop-color:#e3038c" />
    </linearGradient>
    <linearGradient
       id="linearGradient4602"
       spreadMethod="pad"
       gradientTransform="matrix(-46.929687,0,0,-46.929687,278.24316,273.40918)"
       gradientUnits="userSpaceOnUse"
       y2="0"
       x2="1"
       y1="0"
       x1="0">
      <stop
         id="stop4604"
         offset="0"
         style="stop-opacity:1;stop-color:#db5c87" />
      <stop
         id="stop4606"
         offset="1"
         style="stop-opacity:1;stop-color:#e3038c" />
    </linearGradient>
    <linearGradient
       id="linearGradient4622"
       spreadMethod="pad"
       gradientTransform="matrix(-23.848633,0,0,-23.848633,407.15723,188.8291)"
       gradientUnits="userSpaceOnUse"
       y2="0"
       x2="1"
       y1="0"
       x1="0">
      <stop
         id="stop4624"
         offset="0"
         style="stop-opacity:1;stop-color:#db5c87" />
      <stop
         id="stop4626"
         offset="1"
         style="stop-opacity:1;stop-color:#e3038c" />
    </linearGradient>
    <linearGradient
       id="linearGradient4642"
       spreadMethod="pad"
       gradientTransform="matrix(-26.073242,0,0,-26.073242,419.76074,270.70508)"
       gradientUnits="userSpaceOnUse"
       y2="0"
       x2="1"
       y1="0"
       x1="0">
      <stop
         id="stop4644"
         offset="0"
         style="stop-opacity:1;stop-color:#db5c87" />
      <stop
         id="stop4646"
         offset="1"
         style="stop-opacity:1;stop-color:#e3038c" />
    </linearGradient>
    <linearGradient
       id="linearGradient4662"
       spreadMethod="pad"
       gradientTransform="matrix(-26.018066,0,0,-26.018066,325.29053,151.06836)"
       gradientUnits="userSpaceOnUse"
       y2="0"
       x2="1"
       y1="0"
       x1="0">
      <stop
         id="stop4664"
         offset="0"
         style="stop-opacity:1;stop-color:#db5c87" />
      <stop
         id="stop4666"
         offset="1"
         style="stop-opacity:1;stop-color:#e3038c" />
    </linearGradient>
    <linearGradient
       id="linearGradient4682"
       spreadMethod="pad"
       gradientTransform="matrix(-16.724609,0,0,-16.724609,258.94434,184.55078)"
       gradientUnits="userSpaceOnUse"
       y2="0"
       x2="1"
       y1="0"
       x1="0">
      <stop
         id="stop4684"
         offset="0"
         style="stop-opacity:1;stop-color:#db5c87" />
      <stop
         id="stop4686"
         offset="1"
         style="stop-opacity:1;stop-color:#e3038c" />
    </linearGradient>
    <linearGradient
       id="linearGradient4702"
       spreadMethod="pad"
       gradientTransform="matrix(-21.023437,0,0,-21.023437,241.2627,246.33398)"
       gradientUnits="userSpaceOnUse"
       y2="0"
       x2="1"
       y1="0"
       x1="0">
      <stop
         id="stop4704"
         offset="0"
         style="stop-opacity:1;stop-color:#db5c87" />
      <stop
         id="stop4706"
         offset="1"
         style="stop-opacity:1;stop-color:#e3038c" />
    </linearGradient>
    <linearGradient
       id="linearGradient4722"
       spreadMethod="pad"
       gradientTransform="matrix(-21.388672,0,0,-21.388672,352.86133,326.34814)"
       gradientUnits="userSpaceOnUse"
       y2="0"
       x2="1"
       y1="0"
       x1="0">
      <stop
         id="stop4724"
         offset="0"
         style="stop-opacity:1;stop-color:#db5c87" />
      <stop
         id="stop4726"
         offset="1"
         style="stop-opacity:1;stop-color:#e3038c" />
    </linearGradient>
  </defs>
  <sodipodi:namedview
     id="base"
     pagecolor="#ffffff"
     bordercolor="#666666"
     borderopacity="1.0"
     inkscape:pageopacity="0.0"
     inkscape:pageshadow="2"
     inkscape:zoom="0.10513379"
     inkscape:cx="855.9878"
     inkscape:cy="476.92565"
     inkscape:document-units="px"
     inkscape:current-layer="layer1"
     showgrid="false"
     inkscape:window-width="1440"
     inkscape:window-height="2491"
     inkscape:window-x="0"
     inkscape:window-y="0"
     inkscape:window-maximized="1"
     units="px" />
  <metadata
     id="metadata7">
    <rdf:RDF>
      <cc:Work
         rdf:about="">
        <dc:format>image/svg+xml</dc:format>
        <dc:type
           rdf:resource="http://purl.org/dc/dcmitype/StillImage" />
        <dc:title></dc:title>
      </cc:Work>
    </rdf:RDF>
  </metadata>
  <g
     inkscape:label="Layer 1"
     inkscape:groupmode="layer"
     id="layer1"
     transform="translate(0,2172.6376)"
     style="display:inline">
    <path
       style="fill:#ec407a;fill-opacity:0.69186042;fill-rule:evenodd;stroke:none;stroke-width:3.58111048px;stroke-linecap:butt;stroke-linejoin:miter;stroke-opacity:1"
       d="m 2754.3766,-1695.7221 c 0,0 -116.8284,24.9655 -306.4552,42.5365 -118.0112,10.9354 -277.3702,-16.5288 -414.1817,53.7616 -356.6482,183.2367 -350.4238,546.4828 -350.4238,546.4828 l 410.5645,402.18936 c 0,0 323.3219,5.70573 531.2995,-368.04836 62.539,-112.3874 56.4649,-293.9377 74.1822,-399.9185 34.2684,-204.987 55.0145,-277.0034 55.0145,-277.0034 z"
       id="path5035-62-3-0"
       inkscape:connector-curvature="0"
       sodipodi:nodetypes="cssccssc"
       inkscape:export-xdpi="102.4"
       inkscape:export-ydpi="102.4" />
    <path
       style="fill:#ec407a;fill-opacity:0.69186042;fill-rule:evenodd;stroke:none;stroke-width:3.58111048px;stroke-linecap:butt;stroke-linejoin:miter;stroke-opacity:1"
       d="m 3178.2787,-189.19532 c 0,0 -83.446,-84.16826 -199.087,-232.94465 -71.9676,-92.58887 -132.719,-239.99597 -265.8542,-316.80584 -347.0642,-200.23261 -657.1358,-2.55988 -657.1358,-2.55988 l -129.4079,555.39811 c 0,0 166.4058,272.56984 599.0476,247.90401 130.095,-7.417011 283.4984,-108.68413 384.3159,-150.072409 194.9991,-80.053881 268.1214,-100.919341 268.1214,-100.919341 z"
       id="path5035-10-9-1-3"
       inkscape:connector-curvature="0"
       sodipodi:nodetypes="cssccssc"
       inkscape:export-xdpi="102.4"
       inkscape:export-ydpi="102.4" />
    <path
       style="fill:#ec407a;fill-opacity:0.69186042;fill-rule:evenodd;stroke:none;stroke-width:3.58111048px;stroke-linecap:butt;stroke-linejoin:miter;stroke-opacity:1"
       d="m 1992.4083,979.32882 c 0,0 38.5903,-111.23874 121.2191,-279.93889 51.4225,-104.9884 157.6482,-224.95015 167.0773,-376.41828 24.5796,-394.856336 -295.0532,-577.21919 -295.0532,-577.21919 l -562.3817,137.89364 c 0,0 -171.9529,269.222 46.2069,637.32275 65.6003,110.68791 226.883,199.33912 310.051,268.98764 160.8625,134.71467 212.8806,189.37233 212.8806,189.37233 z"
       id="path5035-5-9-1-9"
       inkscape:connector-curvature="0"
       sodipodi:nodetypes="cssccssc"
       inkscape:export-xdpi="102.4"
       inkscape:export-ydpi="102.4" />
    <path
       style="fill:#ec407a;fill-opacity:0.69186042;fill-rule:evenodd;stroke:none;stroke-width:3.58111048px;stroke-linecap:butt;stroke-linejoin:miter;stroke-opacity:1"
       d="m 445.60043,551.42425 c 0,0 25.80679,-114.75743 44.3471,-301.10527 11.53835,-115.97047 -15.83916,-272.722253 56.14402,-406.96531 187.65037,-349.95315 557.13935,-342.5582 557.13935,-342.5582 l 407.6833,405.012111 c 0,0 4.6679,317.856429 -376.2633,520.991959 -114.5455,61.08177 -299.20559,54.47398 -407.07612,71.51746 -208.64292,32.96608 -281.97435,53.10725 -281.97435,53.10725 z"
       id="path5035-0-0-0-1"
       inkscape:connector-curvature="0"
       sodipodi:nodetypes="cssccssc"
       inkscape:export-xdpi="102.4"
       inkscape:export-ydpi="102.4" />
    <path
       style="fill:#ec407a;fill-opacity:0.69186042;fill-rule:evenodd;stroke:none;stroke-width:3.58111048px;stroke-linecap:butt;stroke-linejoin:miter;stroke-opacity:1"
       d="m 1189.8138,-2151.6974 c 0,0 85.3266,82.3248 236.2629,196.5271 93.9328,71.0722 243.6687,131.3105 321.3355,262.4568 202.4664,341.8794 0.2956,645.9954 0.2956,645.9954 l -565.4317,125.26084 c 0,0 -276.68593,-164.54044 -250.07449,-589.75524 8.00203,-127.8613 111.55459,-278.3063 154.01109,-377.2679 82.1195,-191.4097 103.6021,-263.217 103.6021,-263.217 z"
       id="path5035-10-6-8-3-9"
       inkscape:connector-curvature="0"
       sodipodi:nodetypes="cssccssc"
       inkscape:export-xdpi="102.4"
       inkscape:export-ydpi="102.4" />
    <path
       style="fill:#ec407a;fill-opacity:0.69186042;fill-rule:evenodd;stroke:none;stroke-width:3.58111048px;stroke-linecap:butt;stroke-linejoin:miter;stroke-opacity:1"
       d="m 18.752396,-978.10778 c 0,0 113.292754,-37.54452 285.192964,-118.17842 106.97968,-50.1813 229.38407,-154.1836 383.49819,-162.92 401.75255,-22.7754 586.13735,292.07529 586.13735,292.07529 l -142.2478,552.35511 c 0,0 -274.46989,168.08963 -648.15355,-47.66219 C 370.8131,-527.3142 281.20036,-686.17192 210.64229,-768.17349 74.169859,-926.78035 18.752396,-978.10778 18.752396,-978.10778 Z"
       id="path5035-5-4-1-4-6"
       inkscape:connector-curvature="0"
       sodipodi:nodetypes="cssccssc"
       inkscape:export-xdpi="102.4"
       inkscape:export-ydpi="102.4" />
    <path
       style="fill:#f06292;fill-opacity:0.50214592;fill-rule:evenodd;stroke:none;stroke-width:3.58111048px;stroke-linecap:butt;stroke-linejoin:miter;stroke-opacity:1"
       d="m 3205.7504,-915.66694 c 0,0 -113.8746,-35.80255 -287.0334,-113.79086 -107.7629,-48.5348 -231.8028,-150.6473 -386.0366,-157.0197 -402.0653,-16.6121 -581.4317,301.0277 -581.4317,301.0277 l 150.995,550.10684 c 0,0 277.1036,163.86023 647.3184,-57.59494 111.3235,-66.59149 198.4043,-226.80418 267.653,-309.87777 133.9391,-160.68036 188.5353,-212.85127 188.5353,-212.85127 z"
       id="path5035-62-3"
       inkscape:connector-curvature="0"
       sodipodi:nodetypes="cssccssc"
       inkscape:export-xdpi="102.4"
       inkscape:export-ydpi="102.4" />
    <path
       style="fill:#f06292;fill-opacity:0.5;fill-rule:evenodd;stroke:none;stroke-width:3.58111048px;stroke-linecap:butt;stroke-linejoin:miter;stroke-opacity:1"
       d="m 2806.6004,597.37919 c 0,0 -29.4557,-113.90636 -53.9323,-299.59048 -15.2324,-115.55774 7.1302,-273.076776 -69.1006,-405.03457 -198.723,-343.99526 -567.7944,-325.21197 -567.7944,-325.21197 L 1721.212,-15.075504 c 0,0 5.4758,317.844184 392.7005,509.135104 116.4376,57.51999 300.7959,45.22118 409.1581,58.93113 209.5913,26.51722 283.5298,44.38846 283.5298,44.38846 z"
       id="path5035-10-9-1"
       inkscape:connector-curvature="0"
       sodipodi:nodetypes="cssccssc"
       inkscape:export-xdpi="102.4"
       inkscape:export-ydpi="102.4" />
    <path
       style="fill:#f06292;fill-opacity:0.5;fill-rule:evenodd;stroke:none;stroke-width:3.58111048px;stroke-linecap:butt;stroke-linejoin:miter;stroke-opacity:1"
       d="m 1185.2638,1026.4728 c 0,0 89.999,-77.36785 247.3631,-182.85321 97.9331,-65.64692 250.9435,-117.32535 336.1499,-243.86597 222.1211,-329.87364 38.0658,-644.91015 38.0658,-644.91015 l -557.1732,-157.00233 c 0,0 -285.84921,148.63437 -284.14377,574.65 0.51155,128.10285 95.09757,284.14891 131.69777,385.3461 70.7921,195.73271 88.0404,268.63556 88.0404,268.63556 z"
       id="path5035-5-9-1"
       inkscape:connector-curvature="0"
       sodipodi:nodetypes="cssccssc"
       inkscape:export-xdpi="102.4"
       inkscape:export-ydpi="102.4" />
    <path
       style="fill:#f06292;fill-opacity:0.5;fill-rule:evenodd;stroke:none;stroke-width:3.58111048px;stroke-linecap:butt;stroke-linejoin:miter;stroke-opacity:1"
       d="m 63.332244,-104.38887 c 0,0 80.718616,-86.69937 191.556636,-238.96832 68.97834,-94.76207 124.99664,-243.9695 255.61559,-324.84649 340.50525,-210.83459 656.73083,-22.81928 656.73083,-22.81928 l 147.0643,551.13517 c 0,0 -157.6281,277.56615 -590.84392,266.25149 C 593.18835,122.96161 436.62915,26.473921 334.54116,-11.785742 137.08341,-85.7878 63.332244,-104.38887 63.332244,-104.38887 Z"
       id="path5035-0-0-0"
       inkscape:connector-curvature="0"
       sodipodi:nodetypes="cssccssc"
       inkscape:export-xdpi="102.4"
       inkscape:export-ydpi="102.4" />
    <path
       style="fill:#f06292;fill-opacity:0.5;fill-rule:evenodd;stroke:none;stroke-width:3.58111048px;stroke-linecap:butt;stroke-linejoin:miter;stroke-opacity:1"
       d="m 2082.7204,-2079.5663 c 0,0 32.0222,113.2349 104.6507,286.3255 45.1991,107.7197 144.2352,233.4859 144.7922,385.2368 1.4522,395.5923 -328.315,559.59326 -328.315,559.59326 l -553.3897,-169.44196 c 0,0 -155.9272,-278.4926 83.3944,-633.6594 71.9638,-106.7981 238.1633,-186.1892 325.2663,-251.0239 168.4737,-125.4025 223.6011,-177.0303 223.6011,-177.0303 z"
       id="path5035-10-6-8-3"
       inkscape:connector-curvature="0"
       sodipodi:nodetypes="cssccssc"
       inkscape:export-xdpi="102.4"
       inkscape:export-ydpi="102.4" />
    <path
       style="fill:#f06292;fill-opacity:0.5;fill-rule:evenodd;stroke:none;stroke-width:3.58111048px;stroke-linecap:butt;stroke-linejoin:miter;stroke-opacity:1"
       d="m 471.63249,-1638.8076 c 0,0 117.21023,23.1709 307.09316,37.8322 118.17048,9.1244 277.07425,-20.7799 414.98425,47.4039 359.5123,177.7455 359.0527,541.0428 359.0527,541.0428 l -404.1329,408.43606 c 0,0 -323.19245,10.66269 -537.07497,-359.85676 -64.31439,-111.4148 -61.12191,-293.0363 -80.51916,-398.7323 -37.51657,-204.4363 -59.40308,-276.1259 -59.40308,-276.1259 z"
       id="path5035-5-4-1-4"
       inkscape:connector-curvature="0"
       sodipodi:nodetypes="cssccssc"
       inkscape:export-xdpi="102.4"
       inkscape:export-ydpi="102.4" />
    <path
       style="fill:#ffebee;fill-opacity:1;fill-rule:evenodd;stroke:none;stroke-width:3.58111048px;stroke-linecap:butt;stroke-linejoin:miter;stroke-opacity:1"
       d="m 1627.1399,-1674.0898 c 0,0 -45.842,70.37 -132.0071,173.0712 -53.6236,63.9141 -147.6709,129.028 -180.3207,232.0386 -85.1134,268.5335 104.1093,447.75294 104.1093,447.75294 l 412.0991,-1.42158 c 0,0 165.1876,-157.21041 78.0821,-447.75276 -26.1926,-87.3657 -122.253,-175.4726 -167.6577,-237.4325 -87.8212,-119.842 -114.305,-166.2559 -114.305,-166.2559 z"
       id="path5035"
       inkscape:connector-curvature="0"
       sodipodi:nodetypes="cssccssc"
       inkscape:export-xdpi="102.4"
       inkscape:export-ydpi="102.4" />
    <path
       style="fill:#ffebee;fill-opacity:1;fill-rule:evenodd;stroke:none;stroke-width:3.58111048px;stroke-linecap:butt;stroke-linejoin:miter;stroke-opacity:1"
       d="m 2611.7087,-1127.8846 c 0,0 -84.9991,-0.9281 -219.2574,-18.3412 -83.5536,-10.8365 -189.5624,-54.7378 -295.7297,-27.3723 -276.7634,71.3385 -331.1058,324.0575 -331.1058,324.0575 l 219.5972,342.80421 c 0,0 223.1569,54.40746 427.6487,-172.16838 61.4903,-68.13107 86.597,-194.90239 115.9895,-265.58773 56.8505,-136.7186 82.8575,-183.3921 82.8575,-183.3921 z"
       id="path5035-10"
       inkscape:connector-curvature="0"
       sodipodi:nodetypes="cssccssc"
       inkscape:export-xdpi="102.4"
       inkscape:export-ydpi="102.4" />
    <path
       style="fill:#ffebee;fill-opacity:1;fill-rule:evenodd;stroke:none;stroke-width:3.58111048px;stroke-linecap:butt;stroke-linejoin:miter;stroke-opacity:1"
       d="m 2615.2217,45.671918 c 0,0 -37.6226,-74.932401 -82.583,-200.506398 -27.9803,-78.14866 -36.1285,-190.94521 -108.9972,-271.63048 -189.958,-210.33401 -443.7993,-143.60839 -443.7993,-143.60839 l -211.5946,347.63411 c 0,0 51.631,220.24579 349.705,296.974765 89.6301,23.072501 215.9903,-12.28641 293.4124,-18.507583 149.7487,-12.03326 203.8567,-10.356024 203.8567,-10.356024 z"
       id="path5035-5"
       inkscape:connector-curvature="0"
       sodipodi:nodetypes="cssccssc"
       inkscape:export-xdpi="102.4"
       inkscape:export-ydpi="102.4" />
    <path
       style="fill:#ffebee;fill-opacity:1;fill-rule:evenodd;stroke:none;stroke-width:3.58111048px;stroke-linecap:butt;stroke-linejoin:miter;stroke-opacity:1"
       d="m 1619.7066,596.7308 c 0,0 -45.8419,-70.36895 -132.0071,-173.06973 -53.6236,-63.91431 -147.6709,-129.02821 -180.3207,-232.03869 -85.1133,-268.533495 104.1093,-447.75291 104.1093,-447.75291 l 412.0992,1.42154 c 0,0 165.1875,157.210287 78.0818,447.75266 -26.1926,87.36591 -122.2528,175.4726 -167.6575,237.43251 -87.8212,119.84063 -114.305,166.25462 -114.305,166.25462 z"
       id="path5035-0"
       inkscape:connector-curvature="0"
       sodipodi:nodetypes="cssccssc"
       inkscape:export-xdpi="102.4"
       inkscape:export-ydpi="102.4" />
    <path
       style="fill:#ffebee;fill-opacity:1;fill-rule:evenodd;stroke:none;stroke-width:3.58111048px;stroke-linecap:butt;stroke-linejoin:miter;stroke-opacity:1"
       d="m 608.33238,-1128.3276 c 0,0 84.99921,-0.9266 219.25776,-18.341 83.55326,-10.8367 189.56226,-54.7379 295.72946,-27.3723 276.7636,71.3386 331.106,324.05731 331.106,324.05731 l -219.5973,342.80442 c 0,0 -223.1574,54.4073 -427.64885,-172.16869 -61.49032,-68.13083 -86.59699,-194.90238 -115.98956,-265.58746 -56.85065,-136.71848 -82.85751,-183.39228 -82.85751,-183.39228 z"
       id="path5035-10-6"
       inkscape:connector-curvature="0"
       sodipodi:nodetypes="cssccssc"
       inkscape:export-xdpi="102.4"
       inkscape:export-ydpi="102.4" />
    <path
       style="fill:#ffebee;fill-opacity:1;fill-rule:evenodd;stroke:none;stroke-width:3.58111048px;stroke-linecap:butt;stroke-linejoin:miter;stroke-opacity:1"
       d="m 621.8721,40.439358 c 0,0 37.62267,-74.932338 82.58337,-200.506268 27.98022,-78.14879 36.1285,-190.94531 108.99723,-271.63043 189.9576,-210.33431 443.7994,-143.60854 443.7994,-143.60854 l 211.5941,347.63405 c 0,0 -51.6309,220.245978 -349.7045,296.974919 C 1029.5109,92.375471 903.151,57.016737 825.72911,50.795536 675.98051,38.762185 621.8721,40.439358 621.8721,40.439358 Z"
       id="path5035-5-4"
       inkscape:connector-curvature="0"
       sodipodi:nodetypes="cssccssc"
       inkscape:export-xdpi="102.4"
       inkscape:export-ydpi="102.4" />
    <path
       style="fill:#ffcdd2;fill-opacity:0.65697674;fill-rule:evenodd;stroke:none;stroke-width:3.58111048px;stroke-linecap:butt;stroke-linejoin:miter;stroke-opacity:1"
       d="m 2182.3914,-1509.5122 c 0,0 -75.4924,38.4103 -202.3501,84.9998 -78.9478,28.9944 -193.5139,39.1588 -274.1833,112.3205 -210.2936,190.7219 -137.5776,438.93703 -137.5776,438.93703 l 357.6114,201.32369 c 0,0 223.0181,-54.95521 295.3597,-349.38652 21.7531,-88.5351 -16.6241,-212.0533 -24.4312,-288.0294 -15.1007,-146.9521 -14.4289,-200.1651 -14.4289,-200.1651 z"
       id="path5035-62"
       inkscape:connector-curvature="0"
       sodipodi:nodetypes="cssccssc"
       inkscape:export-xdpi="102.4"
       inkscape:export-ydpi="102.4" />
    <path
       style="fill:#ffebee;fill-opacity:0.5;fill-rule:evenodd;stroke:none;stroke-width:3.58111048px;stroke-linecap:butt;stroke-linejoin:miter;stroke-opacity:1"
       d="m 2609.6479,41.003117 c 0,0 -37.6227,-74.932369 -82.5831,-200.506277 -27.9805,-78.14897 -36.1285,-190.94532 -108.9968,-271.63061 -189.9586,-210.33411 -443.7997,-143.60838 -443.7997,-143.60838 l -211.5943,347.63408 c 0,0 51.6308,220.2458198 349.7047,296.974922 89.6303,23.072495 215.9903,-12.286546 293.4123,-18.507679 149.7488,-12.033323 203.8569,-10.356056 203.8569,-10.356056 z"
       id="path5035-5-5"
       inkscape:connector-curvature="0"
       sodipodi:nodetypes="cssccssc"
       inkscape:export-xdpi="102.4"
       inkscape:export-ydpi="102.4" />
    <path
       style="fill:#ffcdd2;fill-opacity:0.65697674;fill-rule:evenodd;stroke:none;stroke-width:3.58111048px;stroke-linecap:butt;stroke-linejoin:miter;stroke-opacity:1"
       d="m 2757.2387,-552.5496 c 0,0 -73.1395,-42.58274 -180.5539,-123.65313 -66.8474,-50.45328 -136.3246,-140.57815 -242.1875,-169.06217 -275.9684,-74.25377 -451.5701,117.89699 -451.5701,117.89699 l 15.8177,404.81374 c 0,0 165.5865,156.80415 457.9239,61.0953 87.9057,-28.77964 174.1278,-126.22634 235.5351,-172.99457 118.7725,-90.45868 165.0348,-118.09616 165.0348,-118.09616 z"
       id="path5035-10-9"
       inkscape:connector-curvature="0"
       sodipodi:nodetypes="cssccssc"
       inkscape:export-xdpi="102.4"
       inkscape:export-ydpi="102.4" />
    <path
       style="fill:#ffcdd2;fill-opacity:0.65697674;fill-rule:evenodd;stroke:none;stroke-width:3.58111048px;stroke-linecap:butt;stroke-linejoin:miter;stroke-opacity:1"
       d="m 2163.379,465.50702 c 0,0 5.5303,-83.38577 30.4635,-214.23486 15.5169,-81.43167 65.8316,-183.121284 43.7644,-288.813057 C 2180.0798,-313.06388 1926.3088,-380.0457 1926.3088,-380.0457 l -360.0625,197.05713 c 0,0 -67.309,216.11618 151.8038,429.07466 65.8869,64.03634 193.3026,95.52298 263.5161,128.18975 135.8067,63.18342 181.8128,91.23118 181.8128,91.23118 z"
       id="path5035-5-9"
       inkscape:connector-curvature="0"
       sodipodi:nodetypes="cssccssc"
       inkscape:export-xdpi="102.4"
       inkscape:export-ydpi="102.4" />
    <path
       style="fill:#ffcdd2;fill-opacity:0.65697674;fill-rule:evenodd;stroke:none;stroke-width:3.58111048px;stroke-linecap:butt;stroke-linejoin:miter;stroke-opacity:1"
       d="m 1020.9534,453.42384 c 0,0 -3.9082,-83.47456 -26.2928,-214.76821 C 980.72971,156.94733 932.40106,54.330975 956.51949,-50.926995 1019.3923,-325.31876 1274.4198,-387.52051 1274.4198,-387.52051 l 356.1652,203.78602 c 0,0 63.0953,217.341077 -160.1183,426.14404 -67.1197,62.78668 -195.124,91.87385 -265.9603,123.21558 -137.0101,60.62039 -183.553,87.79871 -183.553,87.79871 z"
       id="path5035-0-0"
       inkscape:connector-curvature="0"
       sodipodi:nodetypes="cssccssc"
       inkscape:export-xdpi="102.4"
       inkscape:export-ydpi="102.4" />
    <path
       style="fill:#ffcdd2;fill-opacity:0.65697674;fill-rule:evenodd;stroke:none;stroke-width:3.58111048px;stroke-linecap:butt;stroke-linejoin:miter;stroke-opacity:1"
       d="m 1022.4889,-1537.632 c 0,0 74.0839,40.9747 199.2118,91.8855 77.8709,31.6833 192.0066,45.7691 270.0315,121.652 203.3996,197.8152 121.922,443.38679 121.922,443.38679 l -364.5362,188.94093 c 0,0 -220.933,-62.56775 -282.78553,-359.30012 -18.59882,-89.2267 24.13774,-211.3545 34.63533,-287.0166 20.3045,-146.345 21.5211,-199.5485 21.5211,-199.5485 z"
       id="path5035-10-6-8"
       inkscape:connector-curvature="0"
       sodipodi:nodetypes="cssccssc"
       inkscape:export-xdpi="102.4"
       inkscape:export-ydpi="102.4" />
    <path
       style="fill:#ffcdd2;fill-opacity:0.65697674;fill-rule:evenodd;stroke:none;stroke-width:3.58111048px;stroke-linecap:butt;stroke-linejoin:miter;stroke-opacity:1"
       d="m 439.7488,-518.79502 c 0,0 70.69468,-46.40105 173.50205,-133.0522 63.98021,-53.92612 128.40817,-147.60572 232.55259,-181.66466 271.49016,-88.78679 457.38476,93.76721 457.38476,93.76721 l 6.4303,405.06287 c 0,0 -156.7365,165.36093 -453.90252,85.30111 C 766.35839,-273.45456 674.912,-366.18464 611.0267,-409.62686 487.46076,-493.65231 439.7488,-518.79502 439.7488,-518.79502 Z"
       id="path5035-5-4-1"
       inkscape:connector-curvature="0"
       sodipodi:nodetypes="cssccssc"
       inkscape:export-xdpi="102.4"
       inkscape:export-ydpi="102.4" />
    <ellipse
       style="opacity:1;fill:#ffcb7d;fill-opacity:1;stroke-width:3.58111048"
       id="path5022"
       cx="1597.3251"
       cy="-537.37311"
       inkscape:export-xdpi="102.4"
       inkscape:export-ydpi="102.4"
       rx="365.41678"
       ry="359.21906" />
  </g>
</svg>
